HIERARCHY
ROOT ui
{
	 OFFSET 0 0 0
	 CHANNELS 3 XPosition YPosition Z Position
	 EndSite
	 {
	 OFFSET 0 -1 0
	 }
}
ROOT li
{
	 OFFSET 0 0 0
	 CHANNELS 3 XPosition YPosition Z Position
	 EndSite
	 {
	 OFFSET 0 -1 0
	 }
}
ROOT ul
{
	 OFFSET 0 0 0
	 CHANNELS 3 XPosition YPosition Z Position
	 EndSite
	 {
	 OFFSET 0 -1 0
	 }
}
ROOT ll
{
	 OFFSET 0 0 0
	 CHANNELS 3 XPosition YPosition Z Position
	 EndSite
	 {
	 OFFSET 0 -1 0
	 }
}
ROOT tt
{
	 OFFSET 0 0 0
	 CHANNELS 3 XPosition YPosition Z Position
	 EndSite
	 {
	 OFFSET 0 -1 0
	 }
}
ROOT tb
{
	 OFFSET 0 0 0
	 CHANNELS 3 XPosition YPosition Z Position
	 EndSite
	 {
	 OFFSET 0 -1 0
	 }
}
ROOT td
{
	 OFFSET 0 0 0
	 CHANNELS 3 XPosition YPosition Z Position
	 EndSite
	 {
	 OFFSET 0 -1 0
	 }
}
ROOT v
{
	 OFFSET 0 0 0
	 CHANNELS 3 XPosition YPosition Z Position
	 EndSite
	 {
	 OFFSET 0 -1 0
	 }
}
ROOT bn
{
	 OFFSET 0 0 0
	 CHANNELS 3 XPosition YPosition Z Position
	 EndSite
	 {
	 OFFSET 0 -1 0
	 }
}
MOTION
Frames: 21
Frame Time: 0.002
0.011696788787841797	1.9166000187397002E-4	0		0.40593161010742185	-2.381283447265625	0		-1.0932935791015626	-0.04494326019287109	0		-0.608404541015625	-2.50206103515625	0		1.842014892578125	-0.6658328857421875	0		3.330905029296875	0.31554931640625	0		4.65111572265625	0.25979736328125	0		5.8949375	0.3749580078125	0		-0.24212017822265625	5.90671142578125	0		
0.009208454132080077	-0.003103998899459839	0		0.4065178527832031	-2.381630126953125	0		-1.10145703125	-0.030143783569335936	0		-0.610248291015625	-2.526376708984375	0		1.8446395263671875	-0.663203125	0		3.32248681640625	0.31639035034179686	0		4.6616591796875	0.2583088684082031	0		5.88822216796875	0.3764835510253906	0		-0.3597681884765625	5.89848193359375	0		
0.01776732063293457	-0.0055992650985717774	0		0.39987371826171875	-2.39684912109375	0		-1.0967894287109374	-0.02658129119873047	0		-0.6059464111328124	-2.544804931640625	0		1.8513861083984375	-0.6556423950195313	0		3.33129345703125	0.32793197631835935	0		4.659486328125	0.2710637817382813	0		5.9049599609375	0.3631722717285156	0		-0.39236227416992187	5.8917197265625	0		
0.020605056762695313	0.006011279106140137	0		0.40663690185546875	-2.391303955078125	0		-1.0880421142578125	-0.020093393325805665	0		-0.6073234252929688	-2.547129150390625	0		1.8660875244140624	-0.6522200317382812	0		3.3628525390625	0.3240712280273437	0		4.6773173828125	0.282470703125	0		5.90837255859375	0.3781514892578125	0		-0.3415797119140625	5.90446240234375	0		
0.021245635986328126	0.005662026882171631	0		0.437490234375	-2.382186767578125	0		-1.0973636474609374	-0.018281312942504884	0		-0.6147843017578125	-2.555343505859375	0		1.8667386474609375	-0.6525398559570312	0		3.338976318359375	0.3512192993164063	0		4.677205078125	0.29621139526367185	0		5.9088291015625	0.3777100830078125	0		-0.3581739501953125	5.89641357421875	0		
-0.029297109603881835	-0.004767666816711426	0		0.3852581176757813	-2.37757568359375	0		-1.1036263427734374	-0.013521356582641602	0		-0.621253662109375	-2.564572998046875	0		1.8825550537109375	-0.6441231079101563	0		3.34038330078125	0.33791604614257814	0		4.68298876953125	0.30385641479492187	0		5.89504052734375	0.3796402893066406	0		-0.35761245727539065	5.8970615234375	0		
0.015404836654663086	-0.0018966150283813476	0		0.44462579345703124	-2.395962158203125	0		-1.10298876953125	-0.013882076263427735	0		-0.62667529296875	-2.57081640625	0		1.87111669921875	-0.649212890625	0		3.3492099609375	0.3484927062988281	0		4.68287109375	0.31761856079101564	0		5.8954951171875	0.3792407531738281	0		-0.23990625	5.905619140625	0		
-0.03295486831665039	-3.5407501459121704E-4	0		0.40527459716796876	-2.396572021484375	0		-1.102962646484375	0.008777432441711426	0		-0.6162098999023438	-2.582339111328125	0		1.8958470458984376	-0.6439408569335937	0		3.363815673828125	0.3479727172851563	0		4.677587890625	0.32348062133789063	0		5.9044404296875	0.3715684814453125	0		-0.3906663818359375	5.89198291015625	0		
0.016599260330200195	-0.002554840087890625	0		0.4618726806640625	-2.398889404296875	0		-1.098330078125	0.011359576225280762	0		-0.6176168823242187	-2.584639892578125	0		1.8966890869140625	-0.6302326049804687	0		3.348855712890625	0.373992431640625	0		4.6915166015625	0.34300808715820313	0		5.91634130859375	0.38108248901367187	0		-0.35611355590820315	5.89604248046875	0		
-0.035535934448242185	0.016073427200317382	0		0.40070977783203127	-2.384092041015625	0		-1.0896536865234374	0.018881429672241212	0		-0.5990390625	-2.58528662109375	0		1.930140869140625	-0.6361019897460938	0		3.372344970703125	0.3713265991210937	0		4.705150390625	0.3485430908203125	0		5.91672314453125	0.38071875	0		-0.3556822814941406	5.89572119140625	0		
0.01761740303039551	-0.003172168016433716	0		0.4402058715820312	-2.386083984375	0		-1.084118408203125	0.021471710205078126	0		-0.6277251586914062	-2.597080322265625	0		1.9336866455078126	-0.6334288940429688	0		3.390157958984375	0.3897700805664063	0		4.7048779296875	0.36232901000976564	0		5.91706787109375	0.3803545837402344	0		-0.3562734375	5.89643017578125	0		
-0.030931835174560548	-0.0015905020236968994	0		0.4235576171875	-2.39206591796875	0		-1.0796229248046876	0.025094554901123046	0		-0.5964138793945313	-2.6059306640625	0		1.922371337890625	-0.619483642578125	0		3.381597412109375	0.3906827697753906	0		4.7045478515625	0.3761141357421875	0		5.90680078125	0.3977427978515625	0		-0.3711002197265625	5.8864033203125	0		
0.008586264610290528	0.0064334931373596195	0		0.42394491577148435	-2.392341552734375	0		-1.176119140625	0.033529975891113284	0		-0.630965576171875	-2.602593505859375	0		1.9396318359375	-0.6260465698242188	0		3.367959716796875	0.39068496704101563	0		4.70901416015625	0.3818077697753906	0		5.91486669921875	0.39183013916015624	0		-0.4237850646972656	5.8870634765625	0		
-0.016179346084594728	0.002609657049179077	0		0.415316650390625	-2.38944873046875	0		-1.130522216796875	0.04944944381713867	0		-0.5818330078125	-2.613737548828125	0		1.9640582275390626	-0.61973193359375	0		3.40932373046875	0.3937066650390625	0		4.72164990234375	0.4003517761230469	0		5.92245458984375	0.42398626708984377	0		-0.34017813110351564	5.90531103515625	0		
0.026071264266967775	0.0026015899181365968	0		0.44673690795898435	-2.380260986328125	0		-1.17434716796875	0.045968852996826175	0		-0.6334700927734375	-2.60707568359375	0		1.9266082763671875	-0.6023125610351563	0		3.39493798828125	0.4147207946777344	0		4.72215478515625	0.41510418701171875	0		5.92745263671875	0.40086700439453127	0		-0.35513336181640626	5.89531787109375	0		
-0.029848854064941407	-0.002654810905456543	0		0.416885009765625	-2.38198046875	0		-1.0750782470703124	0.049951950073242185	0		-0.6024204711914063	-2.614880126953125	0		1.944765625	-0.6038855590820312	0		3.385992431640625	0.40762991333007814	0		4.72645654296875	0.4217803955078125	0		5.92757958984375	0.40043292236328126	0		-0.23876329040527344	5.904998046875	0		
0.019242156982421876	-0.004776220798492431	0		0.4429391174316406	-2.385693359375	0		-1.1868548583984375	0.056696884155273436	0		-0.6413209838867188	-2.615434326171875	0		1.9448809814453125	-0.6041392822265625	0		3.409230712890625	0.4139627685546875	0		4.73169775390625	0.4284308166503906	0		5.92766259765625	0.3999795837402344	0		-0.39087725830078124	5.8924560546875	0		
-0.029675765991210936	-0.0031518540382385256	0		0.42893310546875	-2.388693359375	0		-1.1386810302734376	0.06259939193725586	0		-0.6063358764648438	-2.619301513671875	0		1.9470054931640626	-0.600432373046875	0		3.42314453125	0.40545101928710936	0		4.72998779296875	0.4411942443847656	0		5.9134521484375	0.401847900390625	0		-0.3898106689453125	5.8911923828125	0		
-0.03644342041015625	0.009723876953125	0		0.3972049255371094	-2.372376220703125	0		-1.18049609375	0.07310720825195313	0		-0.6470287475585937	-2.60081689453125	0		1.9561951904296875	-0.5898560791015625	0		3.403649169921875	0.43352996826171875	0		4.7482373046875	0.4545888977050781	0		5.92493896484375	0.4112288513183594	0		-0.34247140502929685	5.90710888671875	0		
-0.029725038528442382	-0.0036464080810546876	0		0.45681936645507815	-2.390694580078125	0		-1.070490478515625	0.07491060638427735	0		-0.6152340087890625	-2.608627197265625	0		1.97411962890625	-0.591444580078125	0		3.416673828125	0.4370149841308594	0		4.7484423828125	0.468290283203125	0		5.920064453125	0.4316675109863281	0		-0.22624693298339843	5.91779541015625	0		
0.01916620635986328	-0.00577023983001709	0		0.4209249267578125	-2.378311279296875	0		-1.1475426025390625	0.07704669189453126	0		-0.651291748046875	-2.605228515625	0		1.97402880859375	-0.5917208862304687	0		3.448698486328125	0.4421484375	0		4.74836572265625	0.46797799682617186	0		5.9248447265625	0.4101278991699219	0		-0.35762466430664064	5.89788720703125	0		
